<?xml version="1.0" standalone="no"?>
<svg xmlns="http://www.w3.org/2000/svg" viewBox="0 0 109.3 29" width="109.3" height="29"><path fill="#000000" fill-rule="nonzero" d="M2.71 19.61L0 19.61L0 0.17L7.51 0.17L7.51 2.11L2.71 2.11L2.71 8.59L6.43 8.59L6.43 10.51L2.71 10.51L2.71 19.61ZM14.40 19.82L14.40 19.82Q12.29 19.82 11.16 18.98Q10.03 18.14 9.62 16.62Q9.22 15.10 9.22 13.06L9.22 13.06L9.22 0.17L11.81 0.17L11.81 13.18Q11.81 14.42 11.98 15.46Q12.14 16.49 12.71 17.09Q13.27 17.69 14.40 17.69L14.40 17.69Q15.55 17.69 16.10 17.09Q16.66 16.49 16.82 15.46Q16.99 14.42 16.99 13.18L16.99 13.18L16.99 0.17L19.56 0.17L19.56 13.06Q19.56 15.10 19.15 16.62Q18.74 18.14 17.63 18.98Q16.51 19.82 14.40 19.82ZM27 19.82L27 19.82Q25.32 19.82 24.20 19.10Q23.09 18.38 22.51 17.11Q21.94 15.84 21.84 14.16L21.84 14.16L24.24 13.51Q24.31 14.54 24.56 15.50Q24.82 16.46 25.39 17.08Q25.97 17.69 27 17.69L27 17.69Q28.06 17.69 28.60 17.10Q29.14 16.51 29.14 15.41L29.14 15.41Q29.14 14.09 28.54 13.28Q27.94 12.48 27.02 11.66L27.02 11.66L23.76 8.78Q22.80 7.94 22.34 6.95Q21.89 5.95 21.89 4.49L21.89 4.49Q21.89 2.35 23.11 1.18Q24.34 0 26.45 0L26.45 0Q27.60 0 28.48 0.30Q29.35 0.60 29.94 1.22Q30.53 1.85 30.88 2.80Q31.22 3.74 31.34 5.02L31.34 5.02L29.04 5.64Q28.97 4.68 28.75 3.88Q28.54 3.07 28.00 2.58Q27.46 2.09 26.45 2.09L26.45 2.09Q25.44 2.09 24.88 2.63Q24.31 3.17 24.31 4.22L24.31 4.22Q24.31 5.11 24.61 5.69Q24.91 6.26 25.58 6.86L25.58 6.86L28.87 9.74Q29.98 10.70 30.82 12.04Q31.66 13.37 31.66 15.19L31.66 15.19Q31.66 16.63 31.06 17.68Q30.46 18.72 29.41 19.27Q28.37 19.82 27 19.82ZM36.58 19.61L33.91 19.61L33.91 0.17L36.58 0.17L36.58 19.61ZM44.69 19.82L44.69 19.82Q42.72 19.82 41.54 19.06Q40.37 18.29 39.86 16.86Q39.36 15.43 39.36 13.51L39.36 13.51L39.36 6.14Q39.36 4.22 39.88 2.84Q40.39 1.46 41.56 0.73Q42.72 0 44.69 0L44.69 0Q46.66 0 47.81 0.74Q48.96 1.49 49.48 2.86Q49.99 4.22 49.99 6.14L49.99 6.14L49.99 13.54Q49.99 15.43 49.48 16.85Q48.96 18.26 47.81 19.04Q46.66 19.82 44.69 19.82ZM44.69 17.69L44.69 17.69Q45.77 17.69 46.32 17.24Q46.87 16.80 47.06 16.00Q47.26 15.19 47.26 14.11L47.26 14.11L47.26 5.59Q47.26 4.51 47.06 3.73Q46.87 2.95 46.32 2.53Q45.77 2.11 44.69 2.11L44.69 2.11Q43.61 2.11 43.04 2.53Q42.48 2.95 42.29 3.73Q42.10 4.51 42.10 5.59L42.10 5.59L42.10 14.11Q42.10 15.19 42.29 16.00Q42.48 16.80 43.04 17.24Q43.61 17.69 44.69 17.69ZM54.96 19.61L52.66 19.61L52.66 0.17L54.50 0.17L60.02 13.08L60.02 0.17L62.28 0.17L62.28 19.61L60.55 19.61L54.96 6.34L54.96 19.61Z" transform="translate(0, 4.588)"></path><line x1="71.28" y1="2%" x2="71.28" y2="98%" stroke="#000000" stroke-linecap="round"></line><g fill="#dc3d21" color="#dc3d21" transform="translate(80.28 0) scale(0.29)"><svg width="100.0" height="100.0" x="0.0" y="0.0" viewBox="0 0 100 100"><g><path fill="currentColor" d="M76.31,35.389H47.45c-9.202,0-16.853,6.692-18.39,15.46h10.653c1.267-3.025,4.257-5.156,7.737-5.156h28.86   c4.625,0,8.389,3.76,8.389,8.385v7.838c0,4.625-3.764,8.387-8.389,8.387H47.45c-0.062,0-0.12-0.017-0.182-0.018H30.764   c3.077,6.111,9.392,10.322,16.687,10.322h28.86c10.306,0,18.69-8.385,18.69-18.691v-7.838C95,43.774,86.616,35.389,76.31,35.389z"></path><path fill="currentColor" d="M29.527,64.611l0.001,0.004H40.97l-0.004-0.004H52.55c9.234,0,16.904-6.739,18.404-15.553H60.315   c-1.246,3.072-4.252,5.249-7.766,5.249h-9.538v0.004H23.831v-0.004H23.69c-0.662,0-1.299-0.096-1.917-0.242   c-3.7-0.872-6.471-4.183-6.471-8.146v-7.838c0-4.625,3.764-8.385,8.389-8.385h28.86c0.059,0,0.114,0.016,0.173,0.017h16.514   c-3.077-6.11-9.392-10.321-16.687-10.321H23.69C13.384,19.394,5,27.779,5,38.082v7.838c0,9.778,7.55,17.812,17.124,18.612   c0.518,0.043,1.037,0.079,1.566,0.079H29.527z"></path></g></svg></g></svg>